<?xml version="1.0" standalone="no"?>
<!DOCTYPE svg PUBLIC "-//W3C//DTD SVG 20010904//EN"
 "http://www.w3.org/TR/2001/REC-SVG-20010904/DTD/svg10.dtd">
<svg version="1.0" xmlns="http://www.w3.org/2000/svg"
 width="453.000000pt" height="453.000000pt" viewBox="0 0 453.000000 453.000000"
 preserveAspectRatio="xMidYMid meet">
<metadata>
Created by potrace 1.14, written by Peter Selinger 2001-2017
</metadata>
<g transform="translate(0.000000,453.000000) scale(0.100000,-0.100000)"
fill="#000000" stroke="none">
<path d="M2397 4524 c-1 -1 -44 -5 -96 -8 -51 -3 -103 -8 -115 -11 -11 -2 -39
-6 -61 -9 -75 -9 -270 -55 -368 -86 -141 -45 -343 -130 -427 -180 -8 -5 -55
-32 -105 -61 -211 -124 -453 -336 -615 -538 -69 -87 -172 -248 -229 -361 -333
-654 -294 -1411 102 -2015 167 -254 403 -484 664 -647 l73 -45 -65 -102 c-36
-56 -65 -105 -65 -109 0 -12 222 -119 345 -167 177 -68 419 -132 570 -150 33
-4 68 -9 79 -11 91 -17 374 -22 526 -11 407 31 723 123 1118 325 l63 33 -27
47 c-15 26 -33 54 -39 62 -7 8 -24 36 -39 61 l-27 47 48 28 c46 27 223 150
233 163 3 3 26 23 52 44 104 83 257 245 351 369 l27 37 -22 15 c-47 30 -180
106 -185 106 -3 0 -18 9 -34 21 -27 19 -29 23 -16 43 39 60 155 388 170 481 6
39 24 140 33 185 13 73 13 453 -1 550 -59 405 -209 759 -451 1061 l-53 67 109
106 c61 59 110 110 110 114 -1 12 -191 149 -289 208 -276 166 -547 261 -914
318 -79 13 -420 28 -430 20z m310 -158 c45 -4 91 -9 101 -11 11 -2 42 -7 69
-10 177 -25 408 -98 598 -189 129 -62 308 -167 321 -188 4 -6 -44 -60 -114
-127 -66 -64 -252 -244 -412 -401 -161 -157 -332 -323 -379 -368 -47 -46 -118
-115 -157 -154 l-71 -69 -59 17 c-76 23 -204 26 -269 7 -187 -54 -325 -200
-364 -381 -87 -411 343 -738 720 -546 26 13 51 28 54 34 8 14 39 4 88 -27 22
-14 58 -35 80 -48 23 -13 229 -132 457 -265 228 -134 433 -253 455 -265 185
-105 310 -183 310 -193 0 -17 -157 -175 -259 -260 -332 -276 -774 -460 -1221
-509 -135 -14 -504 -7 -575 12 -8 2 -35 7 -60 10 -25 3 -97 19 -160 35 -383
96 -729 288 -990 550 -302 301 -467 622 -545 1055 -3 17 -8 64 -12 105 -59
671 252 1330 828 1753 136 100 291 187 479 269 107 48 327 111 460 133 52 9
106 18 120 21 14 2 68 7 120 10 52 4 96 7 97 8 5 4 211 -2 290 -8z m1025 -748
c59 -67 191 -275 248 -392 49 -101 121 -289 135 -355 57 -259 60 -285 60 -511
0 -253 -21 -399 -85 -600 -35 -107 -111 -290 -121 -290 -4 0 -47 23 -96 51
-48 28 -101 59 -118 69 -16 10 -97 57 -180 105 -82 48 -166 96 -185 107 -125
72 -419 243 -440 257 -14 9 -37 22 -52 30 l-26 14 28 56 c57 112 71 254 36
373 -17 61 -70 152 -115 200 l-30 33 108 105 c290 281 691 671 740 722 31 31
58 57 60 57 2 1 17 -14 33 -31z m-1163 -900 c298 -100 318 -510 32 -649 -67
-33 -216 -34 -284 -1 -134 64 -209 188 -203 335 9 235 233 390 455 315z m980
-2242 c27 -44 26 -52 -6 -64 -16 -6 -66 -27 -113 -47 -47 -20 -94 -40 -105
-45 -115 -49 -387 -116 -585 -145 -161 -23 -516 -23 -650 -1 -14 3 -47 7 -75
11 -132 16 -393 86 -541 146 -64 25 -163 68 -172 75 -9 6 51 85 61 80 256
-111 514 -188 712 -211 22 -3 56 -8 75 -10 19 -3 121 -7 225 -9 172 -3 266 3
445 29 139 20 415 97 517 145 24 11 47 20 51 20 5 0 35 14 67 30 32 17 62 30
66 30 4 0 17 -15 28 -34z"/>
</g>
</svg>
